<svg width="509" height="82" viewBox="0 0 509 82" fill="none" xmlns="http://www.w3.org/2000/svg">
<rect width="509" height="82" rx="10" fill="#FFD540" fill-opacity="0.1"/>
<rect x="1" y="1" width="507" height="80" rx="9" stroke="#FFD540" stroke-opacity="0.6" stroke-width="2" stroke-dasharray="5 5"/>
<path opacity="0.6" d="M217.176 34.8H218.984V41.536C218.984 43.0293 218.595 44.1813 217.816 44.992C217.037 45.8027 215.939 46.208 214.52 46.208C213.101 46.208 212.003 45.8027 211.224 44.992C210.445 44.1813 210.056 43.0293 210.056 41.536V34.8H211.848V41.536C211.848 43.5307 212.739 44.528 214.52 44.528C216.291 44.528 217.176 43.5307 217.176 41.536V34.8ZM225.567 37.728C226.676 37.728 227.583 38.1333 228.287 38.944C228.991 39.744 229.343 40.7467 229.343 41.952C229.343 43.1573 228.986 44.1653 228.271 44.976C227.567 45.776 226.666 46.176 225.567 46.176C224.991 46.176 224.479 46.0693 224.031 45.856C223.583 45.632 223.242 45.344 223.007 44.992V49.44H221.295V37.904H222.783L222.895 39.056C223.492 38.1707 224.383 37.728 225.567 37.728ZM225.263 39.328C224.655 39.328 224.116 39.5627 223.647 40.032C223.188 40.4907 222.959 41.1093 222.959 41.888V41.984C222.98 42.7733 223.21 43.4027 223.647 43.872C224.116 44.3413 224.65 44.576 225.247 44.576C225.93 44.576 226.484 44.3307 226.911 43.84C227.359 43.3387 227.583 42.7093 227.583 41.952C227.583 41.1733 227.364 40.544 226.927 40.064C226.5 39.5733 225.946 39.328 225.263 39.328ZM231.091 34.32H232.787V46H231.091V34.32ZM235.696 38.912C236.486 38.1227 237.483 37.728 238.688 37.728C239.894 37.728 240.891 38.1227 241.68 38.912C242.47 39.7013 242.864 40.7147 242.864 41.952C242.864 43.1893 242.47 44.2027 241.68 44.992C240.891 45.7813 239.894 46.176 238.688 46.176C237.483 46.176 236.486 45.7813 235.696 44.992C234.918 44.2133 234.528 43.2 234.528 41.952C234.528 40.704 234.918 39.6907 235.696 38.912ZM240.432 40.048C239.995 39.5467 239.419 39.296 238.704 39.296C237.99 39.296 237.408 39.5467 236.96 40.048C236.512 40.5387 236.288 41.1733 236.288 41.952C236.288 42.7307 236.512 43.3653 236.96 43.856C237.408 44.3573 237.99 44.608 238.704 44.608C239.419 44.608 239.995 44.3573 240.432 43.856C240.88 43.3653 241.104 42.7307 241.104 41.952C241.104 41.1733 240.88 40.5387 240.432 40.048ZM247.438 37.728C248.398 37.728 249.145 37.984 249.678 38.496C250.212 38.9973 250.478 39.7227 250.478 40.672V46H248.974L248.894 44.944C248.414 45.7653 247.62 46.176 246.51 46.176C245.774 46.176 245.188 45.968 244.75 45.552C244.313 45.136 244.094 44.576 244.094 43.872C244.094 42.5813 244.884 41.7867 246.462 41.488L248.766 41.072V40.704C248.766 39.7333 248.324 39.248 247.438 39.248C247.012 39.248 246.66 39.3653 246.382 39.6C246.116 39.8347 245.982 40.144 245.982 40.528H244.334C244.366 39.728 244.665 39.0613 245.23 38.528C245.796 37.9947 246.532 37.728 247.438 37.728ZM248.766 42.64V42.352L246.83 42.768C246.148 42.9067 245.806 43.248 245.806 43.792C245.806 44.0693 245.902 44.2933 246.094 44.464C246.286 44.624 246.558 44.704 246.91 44.704C247.561 44.704 248.052 44.4427 248.382 43.92C248.638 43.5573 248.766 43.1307 248.766 42.64ZM258.365 34.32H260.061V46H258.573L258.461 44.864C257.853 45.7387 256.957 46.176 255.773 46.176C254.674 46.176 253.773 45.776 253.069 44.976C252.365 44.1653 252.013 43.1573 252.013 41.952C252.013 40.7467 252.365 39.744 253.069 38.944C253.783 38.1333 254.69 37.728 255.789 37.728C256.941 37.728 257.799 38.1227 258.365 38.912V34.32ZM256.093 39.344C255.421 39.344 254.866 39.5893 254.429 40.08C253.991 40.56 253.773 41.184 253.773 41.952C253.773 42.7307 253.986 43.3653 254.413 43.856C254.839 44.336 255.394 44.576 256.077 44.576C256.706 44.576 257.245 44.3467 257.693 43.888C258.151 43.4293 258.381 42.8053 258.381 42.016V41.936C258.381 41.1467 258.151 40.5227 257.693 40.064C257.234 39.584 256.701 39.344 256.093 39.344ZM270.629 34.592C271.952 34.592 273.045 34.912 273.909 35.552C274.773 36.192 275.365 37.0933 275.685 38.256H273.701C273.221 36.9333 272.197 36.272 270.629 36.272C269.541 36.272 268.656 36.6613 267.973 37.44C267.29 38.1973 266.949 39.184 266.949 40.4C266.949 41.5947 267.29 42.5813 267.973 43.36C268.656 44.1387 269.552 44.528 270.661 44.528C272.261 44.528 273.306 43.84 273.797 42.464H275.717C275.397 43.6693 274.805 44.5973 273.941 45.248C273.088 45.888 271.994 46.208 270.661 46.208C269.029 46.208 267.685 45.6587 266.629 44.56C265.584 43.4507 265.061 42.064 265.061 40.4C265.061 38.736 265.584 37.3493 266.629 36.24C267.664 35.1413 268.997 34.592 270.629 34.592ZM277.884 38.912C278.673 38.1227 279.671 37.728 280.876 37.728C282.081 37.728 283.079 38.1227 283.868 38.912C284.657 39.7013 285.052 40.7147 285.052 41.952C285.052 43.1893 284.657 44.2027 283.868 44.992C283.079 45.7813 282.081 46.176 280.876 46.176C279.671 46.176 278.673 45.7813 277.884 44.992C277.105 44.2133 276.716 43.2 276.716 41.952C276.716 40.704 277.105 39.6907 277.884 38.912ZM282.62 40.048C282.183 39.5467 281.607 39.296 280.892 39.296C280.177 39.296 279.596 39.5467 279.148 40.048C278.7 40.5387 278.476 41.1733 278.476 41.952C278.476 42.7307 278.7 43.3653 279.148 43.856C279.596 44.3573 280.177 44.608 280.892 44.608C281.607 44.608 282.183 44.3573 282.62 43.856C283.068 43.3653 283.292 42.7307 283.292 41.952C283.292 41.1733 283.068 40.5387 282.62 40.048ZM291.55 37.904H293.374L290.366 46H288.654L285.646 37.904H287.47L289.342 43.328L289.502 43.984L289.661 43.328L291.55 37.904ZM297.902 37.728C299.033 37.728 299.934 38.0907 300.606 38.816C301.278 39.5413 301.614 40.5653 301.614 41.888V42.544H295.71C295.753 43.1947 295.977 43.712 296.382 44.096C296.798 44.48 297.321 44.672 297.95 44.672C298.932 44.672 299.577 44.288 299.886 43.52H301.55C301.294 44.3733 300.852 45.0293 300.222 45.488C299.604 45.9467 298.83 46.176 297.902 46.176C296.729 46.176 295.774 45.792 295.038 45.024C294.313 44.2453 293.95 43.2267 293.95 41.968C293.95 40.7307 294.313 39.7173 295.038 38.928C295.764 38.128 296.718 37.728 297.902 37.728ZM299.326 39.76C298.964 39.3973 298.484 39.216 297.886 39.216C297.289 39.216 296.793 39.4027 296.398 39.776C296.004 40.1387 295.78 40.6187 295.726 41.216H299.902C299.892 40.608 299.7 40.1227 299.326 39.76ZM307.545 37.824V39.536C306.873 39.536 306.334 39.7173 305.929 40.08C305.481 40.4533 305.246 41.024 305.225 41.792V46H303.529V37.904H305.017L305.161 39.28C305.321 38.8427 305.604 38.4907 306.009 38.224C306.414 37.9573 306.926 37.824 307.545 37.824Z" fill="black"/>
<path d="M186.5 34.3333H178.167V47.6667H189.833V37.6667H186.5V34.3333ZM176.5 33.4933C176.5 33.0367 176.873 32.6667 177.333 32.6667H187.333L191.5 36.8333V48.4942C191.501 48.6036 191.48 48.7121 191.439 48.8135C191.398 48.9149 191.337 49.0072 191.26 49.0851C191.183 49.1631 191.092 49.2251 190.991 49.2677C190.89 49.3103 190.782 49.3326 190.673 49.3333H177.328C177.109 49.3318 176.899 49.2442 176.744 49.0896C176.59 48.9349 176.502 48.7255 176.5 48.5067V33.4933ZM184.833 41V44.3333H183.167V41H180.667L184 37.6667L187.333 41H184.833Z" fill="#FF9A02"/>
</svg>
